<svg xmlns="http://www.w3.org/2000/svg" viewBox="0 0 24 24" role="img" aria-label="Settings">
  <g fill="none" stroke="currentColor" stroke-width="1.8" stroke-linecap="round" stroke-linejoin="round">
    <path d="M12 15.25a3.25 3.25 0 1 0 0-6.5 3.25 3.25 0 0 0 0 6.5Z"/>
    <path d="M19.35 13.4c.1-.46.15-.92.15-1.4s-.05-.94-.15-1.4l2.02-1.55-2-3.46-2.38.96a8.3 8.3 0 0 0-2.42-1.4L14.2 2h-4.4l-.37 3.15a8.3 8.3 0 0 0-2.42 1.4l-2.38-.96-2 3.46 2.02 1.55c-.1.46-.15.92-.15 1.4s.05.94.15 1.4l-2.02 1.55 2 3.46 2.38-.96a8.3 8.3 0 0 0 2.42 1.4L9.8 22h4.4l.37-3.15a8.3 8.3 0 0 0 2.42-1.4l2.38.96 2-3.46-2.02-1.55Z"/>
  </g>
</svg>
